<?xml version="1.0" encoding="UTF-8" standalone="no"?>
<!-- Created with Inkscape (http://www.inkscape.org/) -->

<svg
   width="109.47038mm"
   height="116.06936mm"
   viewBox="0 0 109.47038 116.06936"
   version="1.1"
   id="svg5"
   xml:space="preserve"
   xmlns="http://www.w3.org/2000/svg"
   xmlns:svg="http://www.w3.org/2000/svg"><defs
     id="defs2" /><g
     id="layer1"
     transform="translate(-48.881871,-49.089861)"><g
       id="g3401"><path
         style="fill:#50bd00;fill-opacity:1;stroke-width:0.262547"
         d="m 109.89724,149.85918 c -0.5652,-2.79857 -0.42669,-9.05728 0.27454,-12.40536 1.94214,-9.27295 7.11392,-19.41825 15.1051,-29.63114 1.39655,-1.78482 2.49693,-3.28736 2.44532,-3.33898 -0.19615,-0.19615 -4.86693,3.76761 -7.05455,5.9867 -4.73655,4.80467 -9.10095,11.55346 -12.18664,18.84445 -0.86416,2.04189 -2.79676,7.71711 -3.28798,9.65544 -0.45044,1.77739 -0.61797,1.47889 -1.44016,-2.56613 -2.09173,-10.29082 -1.38278,-17.30439 2.56108,-25.33636 4.43088,-9.02382 14.28594,-18.131825 28.16738,-26.032175 l 2.88803,-1.64367 0.36451,0.84184 c 1.29564,2.99224 2.18437,8.33503 2.19266,13.18155 0.0153,8.932725 -2.9451,16.855205 -9.22183,24.679445 -1.43122,1.78409 -8.3396,9.90557 -9.82579,11.55118 -0.874,0.96776 -4.565,5.75714 -5.7709,7.48825 -1.77294,2.5451 -3.73424,6.53045 -4.25046,8.63693 -0.25072,1.02313 -0.48884,1.86023 -0.52913,1.86023 -0.0403,0 -0.23433,-0.79749 -0.43118,-1.7722 z"
         id="path302" /><path
         style="fill:#0165c5;fill-opacity:1;stroke-width:0.264583"
         d="M 48.881874,164.53546 C 62.483895,126.48537 74.152679,87.463469 87.289091,49.110984 c 7.910081,-0.0438 18.792899,-0.0214 29.854169,0.0852 C 104.46247,89.015909 91.415023,129.71914 80.233864,164.73229 l -15.676564,7.9e-4 c -8.62211,4.8e-4 -15.676052,-0.0884 -15.675427,-0.19758 z"
         id="path302-0-6" /><circle
         style="fill:#ff7d01;fill-opacity:1;stroke:none;stroke-width:0.490259;stroke-linecap:round;stroke-opacity:1"
         id="path1533"
         cx="141.44672"
         cy="148.25368"
         r="16.905533" /></g></g></svg>
